<svg width="80" height="80" viewBox="0 0 80 80" fill="none" xmlns="http://www.w3.org/2000/svg">
<path d="M40 80C62.0914 80 80 62.0914 80 40C80 17.9086 62.0914 0 40 0C17.9086 0 0 17.9086 0 40C0 62.0914 17.9086 80 40 80Z" fill="#5B3775"/>
<path d="M40 78.5C61.263 78.5 78.5 61.263 78.5 40C78.5 18.737 61.263 1.5 40 1.5C18.737 1.5 1.5 18.737 1.5 40C1.5 61.263 18.737 78.5 40 78.5Z" stroke="#A154C3" stroke-width="3"/>
<path d="M24 36V24H36V27H30V30H33V33H36V36H33V33H30V30H27V36H24Z" fill="#FDA2DB"/>
<path d="M56 44L56 56L44 56L44 53L50 53L50 50L47 50L47 47L44 47L44 44L47 44L47 47L50 47L50 50L53 50L53 44L56 44Z" fill="#FDA2DB"/>
<path d="M44 24L56 24L56 36L53 36L53 30L50 30L50 33L47 33L47 36L44 36L44 33L47 33L47 30L50 30L50 27L44 27L44 24Z" fill="#FDA2DB"/>
<path d="M36 56L24 56L24 44L27 44L27 50L30 50L30 47L33 47L33 44L36 44L36 47L33 47L33 50L30 50L30 53L36 53L36 56Z" fill="#FDA2DB"/>
</svg>
