<svg xmlns="http://www.w3.org/2000/svg" width="80" height="80" viewBox="0 0 80 80">
  <g id="Group_60" data-name="Group 60" transform="translate(15563 13962)">
    <g id="Ellipse_4" data-name="Ellipse 4" transform="translate(-15563 -13962)" fill="#5b3775" stroke="#a154c3" stroke-width="3">
      <circle cx="40" cy="40" r="40" stroke="none"/>
      <circle cx="40" cy="40" r="38.5" fill="none"/>
    </g>
    <g id="Group_62" data-name="Group 62" transform="translate(-11317.303 -14747.452)">
      <rect id="Rectangle_23" data-name="Rectangle 23" width="2" height="2" transform="translate(-4185.697 813.453)" fill="#fda2db"/>
      <path id="Path_26" data-name="Path 26" d="M-4187.7,811.453h-4v-2h-10v2h-2v2h-2v4h-2v2h-6v-2h-4v-2h-2v-2h-2v-2h-2v8h2v2h-4v2h2v2h2v2h2v2h-2v4h4v2h2v2h-4v2h-6v2h6v2h14v-2h4v-2h4v-2h2v-2h2v-4h2v-4h2v-4h2v-6h2v-2h-2v-2h2v-2Z" fill="#fda2db"/>
      <rect id="Rectangle_24" data-name="Rectangle 24" width="2" height="2" transform="translate(-4185.697 809.452)" fill="#fda2db"/>
    </g>
  </g>
</svg>
