<svg width="80" height="80" viewBox="0 0 80 80" fill="none" xmlns="http://www.w3.org/2000/svg">
<path d="M40 80C62.0914 80 80 62.0914 80 40C80 17.9086 62.0914 0 40 0C17.9086 0 0 17.9086 0 40C0 62.0914 17.9086 80 40 80Z" fill="#5B3775"/>
<path d="M40 78.5C61.263 78.5 78.5 61.263 78.5 40C78.5 18.737 61.263 1.5 40 1.5C18.737 1.5 1.5 18.737 1.5 40C1.5 61.263 18.737 78.5 40 78.5Z" stroke="#A154C3" stroke-width="3"/>
<path d="M37 25L37 37L25 37L25 34L31 34L31 31L28 31L28 28L25 28L25 25L28 25L28 28L31 28L31 31L34 31L34 25L37 25Z" fill="#FDA2DB"/>
<path d="M43 55V43H55V46H49V49H52V52H55V55H52V52H49V49H46V55H43Z" fill="#FDA2DB"/>
<path d="M55 37L43 37L43 25L46 25L46 31L49 31L49 28L52 28L52 25L55 25L55 28L52 28L52 31L49 31L49 34L55 34L55 37Z" fill="#FDA2DB"/>
<path d="M25 43L37 43L37 55L34 55L34 49L31 49L31 52L28 52L28 55L25 55L25 52L28 52L28 49L31 49L31 46L25 46L25 43Z" fill="#FDA2DB"/>
</svg>
