<svg width="80" height="80" viewBox="0 0 80 80" fill="none" xmlns="http://www.w3.org/2000/svg">
<path d="M75.5 40C75.5 59.6061 59.6061 75.5 40 75.5C20.3939 75.5 4.5 59.6061 4.5 40C4.5 20.3939 20.3939 4.5 40 4.5C59.6061 4.5 75.5 20.3939 75.5 40Z" stroke="#FDA2DB" stroke-width="6"/>
<path fill-rule="evenodd" clip-rule="evenodd" d="M34 22H32H30H27V26H23V29H20V33V37H17V50H19V52H21V54H25V57H29H31V52H28V50H33V52H47V50H52V52H49V57H52H55V54H59V52H61V50H63V37H60V29H57V26H53V22H46V25H34V22ZM35 36H31V38H29V43H31V45H35V43H37V38H35V37V36ZM49 36H45V38H43V43H45V45H49V43H51V38H49V37V36Z" fill="#FDA2DB"/>
</svg>
