<svg width="80" height="80" viewBox="0 0 80 80" fill="none" xmlns="http://www.w3.org/2000/svg">
<path d="M75.5 40C75.5 59.6061 59.6061 75.5 40 75.5C20.3939 75.5 4.5 59.6061 4.5 40C4.5 20.3939 20.3939 4.5 40 4.5C59.6061 4.5 75.5 20.3939 75.5 40Z" stroke="#FDA2DB" stroke-width="6"/>
<path d="M58.9978 32.999H56.9978V28.999H54.9978V26.999H52.9978V24.999H48.9978V22.999H32.9978V24.999H28.9978V26.999H26.9978V28.999H30.9978V30.999H32.9978V38.999H30.9978V42.999H24.9978V40.999H22.9978V50.999H26.9978V52.999H28.9978V54.999H34.9978V56.999H46.9978V54.999H52.9978V56.994H56.9978V52.994H54.9978V50.999H56.9978V44.999H58.9978V34.999H60.9978V32.999H58.9978Z" fill="#FDA2DB"/>
<path d="M29.0007 34.998V38.998H31.0007V30.998H27.0007V32.998H29.0007V34.998Z" fill="#FDA2DB"/>
<path d="M29.0007 41V39H25.0007V41H29.0007Z" fill="#FDA2DB"/>
<path d="M27.002 37.001V33.001H25.002V29.001H21.002V33.001H19.002V37.001H23.002V39.001H25.002V37.001H27.002Z" fill="#FDA2DB"/>
<path d="M23.0039 52.994V56.994H27.0039V52.994H23.0039Z" fill="#FDA2DB"/>
</svg>
