<svg width="80" height="80" viewBox="0 0 80 80" fill="none" xmlns="http://www.w3.org/2000/svg">
<path d="M75.5 40C75.5 59.6061 59.6061 75.5 40 75.5C20.3939 75.5 4.5 59.6061 4.5 40C4.5 20.3939 20.3939 4.5 40 4.5C59.6061 4.5 75.5 20.3939 75.5 40Z" stroke="#FDA2DB" stroke-width="6"/>
<path d="M62.0005 28.001H60.0005V30.001H62.0005V28.001Z" fill="#FDA2DB"/>
<path d="M57.9971 26.001H53.9971V24.001H43.9971V26.001H41.9971V28.001H39.9971V32.001H37.9971V34.001H31.9971V32.001H27.9971V30.001H25.9971V28.001H23.9971V26.001H21.9971V34.001H23.9971V36.001H19.9971V38.001H21.9971V40.001H23.9971V42.001H25.9971V44.001H23.9971V48.001H27.9971V50.001H29.9971V52.001H25.9971V54.001H19.9971V56.001H25.9971V58.001H39.9971V56.001H43.9971V54.001H47.9971V52.001H49.9971V50.001H51.9971V46.001H53.9971V42.001H55.9971V38.001H57.9971V32.001H59.9971V30.001H57.9971V28.001H59.9971V26.001H57.9971Z" fill="#FDA2DB"/>
<path d="M62.0005 24H60.0005V26H62.0005V24Z" fill="#FDA2DB"/>
</svg>
