<svg xmlns="http://www.w3.org/2000/svg" width="80" height="80" viewBox="0 0 80 80">
  <g id="Group_58" data-name="Group 58" transform="translate(15563 13962)">
    <g id="Ellipse_4" data-name="Ellipse 4" transform="translate(-15563 -13962)" fill="#5b3775" stroke="#a154c3" stroke-width="3">
      <circle cx="40" cy="40" r="40" stroke="none"/>
      <circle cx="40" cy="40" r="38.5" fill="none"/>
    </g>
    <g id="Group_59" data-name="Group 59" transform="translate(-12352.182 -14534.574)">
      <path id="Path_20" data-name="Path 20" d="M-3146.292,605.573h-2v-4h-2v-2h-2v-2h-4v-2h-16v2h-4v2h-2v2h4v2h2v8h-2v4h-6v-2h-2v10h4v2h2v2h6v2h12v-2h6v1.995h4v-4h-2v-1.995h2v-6h2v-10h2v-2Z" transform="translate(-5.528)" fill="#fda2db"/>
      <path id="Path_21" data-name="Path 21" d="M-3170.767,618.622v4h2v-8h-4v2h2Z" transform="translate(-11.05 -11.05)" fill="#fda2db"/>
      <path id="Path_22" data-name="Path 22" d="M-3173.528,635.673v-2h-4v2h4Z" transform="translate(-8.289 -22.099)" fill="#fda2db"/>
      <path id="Path_23" data-name="Path 23" d="M-3183.816,617.864v-4h-2v-4h-4v4h-2v4h4v2h2v-2Z" transform="translate(0 -8.289)" fill="#fda2db"/>
      <path id="Path_24" data-name="Path 24" d="M-3182.286,667v4h4v-4h-4Z" transform="translate(-5.528 -41.432)" fill="#fda2db"/>
    </g>
  </g>
</svg>
