<svg width="135" height="254" viewBox="0 0 135 254" fill="none" xmlns="http://www.w3.org/2000/svg">
<g clip-path="url(#clip0_1_2)">
<path d="M120 -5.24537e-06L135 -5.90104e-06L135 254L120 254L120 239L105 239L105 224L90 224L90 209L75 209L75 194L60 194L60 179L45 179L45 164L30 164L30 149L15 149L15 135L-5.20166e-06 135L-5.85733e-06 120L15 120L15 105L30 105L30 90L45 90L45 75L60 75L60 60L75 60L75 45L90 45L90 30L105 30L105 15L120 15L120 -5.24537e-06Z" fill="white"/>
</g>
<defs>
<clipPath id="clip0_1_2">
<rect width="135" height="254" fill="white"/>
</clipPath>
</defs>
</svg>
